<?xml version="1.0" encoding="UTF-8"?>
<svg xmlns="http://www.w3.org/2000/svg" width="80" height="80" viewBox="0 0 80 80">
  <!-- P Logo -->
  <g transform="translate(5, 5) scale(0.7)">
    <!-- Left blue bar -->
    <path d="M0,0 L30,15 L30,75 L0,60 Z" fill="#0078D7" />
    
    <!-- Dark blue edge -->
    <path d="M0,0 L60,0 L90,15 L30,15 Z" fill="#002744" />
    
    <!-- Top orange bar -->
    <path d="M60,0 L120,0 L150,15 L90,15 Z" fill="#FF6C37" />
    
    <!-- Right orange edge -->
    <path d="M150,15 L150,45 L120,30 L120,0 L150,15 Z" fill="#FFA553" />
    
    <!-- Bottom teal bar -->
    <path d="M30,75 L90,75 L90,45 L30,45 Z" fill="#36B1A0" />
    
    <!-- Dark blue inner section -->
    <path d="M30,15 L90,15 L90,45 L60,60 L30,45 Z" fill="#002744" />
    
    <!-- Inner hexagon cutout -->
    <path d="M60,15 L75,22.5 L75,37.5 L60,45 L45,37.5 L45,22.5 Z" fill="white" />
  </g>
</svg>