<?xml version="1.0" encoding="UTF-8"?>
<svg width="480" height="120" viewBox="0 0 480 120" xmlns="http://www.w3.org/2000/svg">
  <!-- P Logo with geometric design -->
  <g transform="translate(190, 20) scale(0.45)">
    <!-- Left blue face -->
    <path d="M20,40 L20,160 L80,120 L80,80 Z" fill="#0078D7" />
    
    <!-- Dark navy face -->
    <path d="M20,40 L80,80 L140,40 L80,0 Z" fill="#002744" />
    
    <!-- Orange top face -->
    <path d="M80,0 L140,40 L200,0 L140,-40 Z" fill="#FF6C37" />
    
    <!-- Light orange right face -->
    <path d="M140,40 L140,80 L200,40 L200,0 Z" fill="#FFA553" />
    
    <!-- Teal bottom face -->
    <path d="M80,80 L140,80 L140,120 L80,120 Z" fill="#36B1A0" />
    
    <!-- Dark navy inner face -->
    <path d="M80,80 L80,120 L20,160 L20,120 Z" fill="#002744" />
    
    <!-- Center hexagon (empty space) -->
    <path d="M80,40 L110,55 L110,85 L80,100 L50,85 L50,55 Z" fill="white" />
  </g>
  
  <!-- PLEX text -->
  <text x="260" y="60" font-family="Arial, sans-serif" font-weight="800" font-size="48" fill="#0078D7">PLEX</text>
  
  <!-- STUDIOS subtext -->
  <text x="260" y="90" font-family="Arial, sans-serif" font-weight="600" font-size="24" fill="#36B1A0">STUDIOS</text>
</svg>